<?xml version="1.0" encoding="UTF-8" standalone="no"?>
<svg
   version="1.0"
   width="2752.000000pt"
   height="2752.000000pt"
   viewBox="0 0 2752.000000 2752.000000"
   preserveAspectRatio="xMidYMid meet"
   id="svg7"
   sodipodi:docname="Logo.svg"
   inkscape:version="1.4.3 (0d15f75, 2025-12-25)"
   xmlns:inkscape="http://www.inkscape.org/namespaces/inkscape"
   xmlns:sodipodi="http://sodipodi.sourceforge.net/DTD/sodipodi-0.dtd"
   xmlns="http://www.w3.org/2000/svg"
   xmlns:svg="http://www.w3.org/2000/svg">
  <defs
     id="defs7" />
  <sodipodi:namedview
     id="namedview7"
     pagecolor="#ffffff"
     bordercolor="#000000"
     borderopacity="0.25"
     inkscape:showpageshadow="2"
     inkscape:pageopacity="0.0"
     inkscape:pagecheckerboard="0"
     inkscape:deskcolor="#d1d1d1"
     inkscape:document-units="pt"
     inkscape:zoom="0.15551467"
     inkscape:cx="2832.5302"
     inkscape:cy="2131.6317"
     inkscape:window-width="1920"
     inkscape:window-height="1009"
     inkscape:window-x="-8"
     inkscape:window-y="-8"
     inkscape:window-maximized="1"
     inkscape:current-layer="svg7" />
  <circle
     style="fill:#f9f9f9;stroke-width:0.75"
     id="path8"
     cx="1396.4108"
     cy="1321.1864"
     r="1300.9851" />
  <g
     transform="matrix(0.13332669,0,0,-0.13332669,-462.37829,3200.5699)"
     fill="#000000"
     stroke="none"
     id="g7">
    <path
       d="m 16436,19993 c 58,-136 108,-255 111,-264 4,-16 -1,-16 -59,-4 -104,22 -379,54 -608,70 -203,15 -241,15 -678,-4 -255,-12 -616,-21 -805,-21 -443,0 -587,-14 -920,-90 -313,-72 -425,-110 -319,-110 45,0 421,-40 442,-47 8,-2 -23,-16 -70,-29 -230,-66 -614,-201 -895,-314 -280,-112 -791,-349 -770,-356 6,-2 82,-13 170,-24 187,-24 285,-41 285,-49 0,-8 -39,-25 -381,-161 -356,-143 -561,-232 -814,-355 -172,-83 -479,-246 -497,-264 -5,-4 99,-29 230,-56 130,-26 244,-52 252,-56 11,-6 0,-15 -41,-32 -126,-57 -737,-398 -1009,-565 -153,-94 -480,-312 -614,-411 -39,-28 -72,-49 -74,-47 -2,3 14,31 36,63 63,94 142,223 135,223 -11,0 -194,-101 -333,-183 -147,-87 -441,-282 -572,-379 -88,-65 -488,-388 -488,-394 0,-2 71,21 158,52 227,81 480,164 498,164 8,0 -16,-26 -53,-57 -283,-238 -803,-709 -792,-716 11,-7 459,-138 489,-143 33,-5 43,2 210,147 440,383 852,710 1045,829 50,31 123,23 238,-25 91,-39 124,-68 114,-105 -3,-11 -1,-20 4,-20 13,0 388,270 389,280 0,3 -59,4 -132,2 -127,-3 -135,-2 -224,29 -51,18 -91,36 -88,40 8,13 374,243 655,411 346,208 730,414 1254,674 365,181 407,204 385,212 -14,6 -120,38 -237,73 -116,35 -210,66 -207,68 2,3 80,32 172,67 92,34 282,107 422,162 341,133 687,259 1278,462 68,24 120,46 115,50 -4,4 -90,50 -190,102 l -183,95 238,66 c 427,120 599,157 1086,232 592,91 953,103 1412,45 205,-26 656,-112 893,-170 108,-27 197,-47 199,-45 1,1 -38,74 -87,161 -50,87 -89,160 -87,161 6,6 241,-79 416,-149 289,-117 526,-228 792,-373 235,-128 650,-375 726,-432 18,-14 35,-23 38,-21 2,3 12,45 22,93 l 18,89 134,-160 c 199,-237 362,-417 575,-634 195,-199 282,-299 351,-404 l 39,-59 -1,-111 c -1,-133 -10,-156 -60,-156 -33,0 -46,10 -141,109 -57,61 -134,134 -171,164 -84,68 -250,182 -256,176 -3,-2 26,-67 64,-143 74,-149 93,-213 88,-298 l -3,-53 -70,3 c -135,7 -401,110 -653,254 -204,117 -396,213 -663,331 -214,95 -311,128 -769,261 -85,24 -164,48 -175,52 -17,6 -17,3 6,-22 151,-171 208,-243 233,-291 21,-42 41,-42 -259,3 -132,19 -258,38 -281,41 l -40,5 -36,-83 -36,-84 30,-52 29,-52 -68,-64 c -180,-169 -180,-170 -350,-232 -181,-67 -350,-141 -490,-214 -115,-61 -106,-48 66,92 182,149 220,174 376,253 l 140,71 13,64 c 7,35 29,122 49,192 19,70 33,131 30,134 -17,16 -435,43 -689,43 -101,1 -226,4 -280,9 l -96,8 -144,84 c -239,140 -397,187 -598,176 -164,-9 -317,-61 -509,-174 -105,-61 -227,-174 -273,-253 -74,-128 -140,-342 -153,-503 l -7,-87 -272,-138 c -474,-243 -850,-474 -1191,-731 -102,-77 -735,-604 -731,-608 1,-1 19,2 41,7 133,29 950,128 962,117 2,-3 -56,-36 -129,-74 -73,-39 -203,-112 -288,-163 -146,-87 -504,-313 -525,-332 -5,-5 7,-25 31,-51 23,-23 63,-70 89,-105 60,-77 145,-136 223,-153 88,-19 275,-17 350,4 l 64,18 34,-26 c 60,-46 92,-88 115,-149 31,-87 60,-142 125,-237 61,-89 179,-244 241,-319 l 38,-44 -40,24 c -73,42 -219,156 -279,216 -72,73 -134,155 -193,256 -45,78 -92,128 -119,128 -9,0 -30,-15 -47,-33 -30,-31 -40,-34 -132,-46 l -101,-13 -74,50 c -41,27 -98,64 -126,83 -29,19 -125,89 -214,157 -104,78 -166,119 -174,114 -6,-5 -76,-57 -156,-117 -345,-259 -428,-331 -784,-687 -192,-191 -347,-350 -344,-353 2,-3 94,15 204,40 170,39 567,115 597,115 5,0 -57,-64 -138,-142 -188,-181 -483,-508 -671,-743 -283,-352 -510,-680 -652,-938 -63,-115 -64,-118 -58,-175 24,-214 18,-255 -64,-522 -106,-341 -100,-303 -111,-694 -5,-193 -13,-386 -19,-429 -12,-81 -47,-194 -118,-374 -22,-57 -37,-103 -32,-103 33,0 468,282 590,383 l 65,53 49,145 c 27,79 73,196 102,259 29,63 58,135 65,160 11,43 10,48 -20,102 l -32,56 153,106 c 173,119 283,208 409,332 80,78 88,91 123,180 38,94 94,181 156,239 l 32,30 -6,-30 c -8,-41 -46,-283 -46,-294 0,-9 137,41 195,72 41,21 93,74 115,116 9,20 36,87 59,150 55,149 54,147 164,279 107,128 196,201 418,343 79,50 152,98 162,107 35,31 24,4 -29,-68 -30,-41 -78,-115 -106,-163 -61,-107 -96,-144 -183,-192 -37,-21 -71,-48 -79,-64 -7,-14 -41,-108 -75,-208 -49,-146 -64,-204 -74,-294 l -12,-111 -105,-38 c -153,-54 -648,-265 -668,-284 -2,-2 22,-19 52,-37 31,-19 56,-38 56,-44 -1,-14 -53,-82 -108,-139 -26,-27 -99,-87 -162,-134 -63,-47 -121,-92 -127,-100 -14,-17 -16,-187 -4,-413 l 6,-126 89,63 c 49,35 115,77 147,94 l 57,30 258,-11 c 143,-6 261,-13 263,-15 7,-6 -171,-185 -297,-300 -97,-88 -108,-95 -185,-118 -45,-14 -217,-65 -382,-114 -165,-50 -367,-106 -450,-126 -164,-40 -285,-74 -285,-82 0,-15 63,-122 154,-263 102,-157 105,-164 131,-274 33,-143 65,-247 75,-247 4,0 113,105 241,233 442,439 718,657 914,720 28,9 106,28 174,43 68,14 156,37 194,50 39,13 72,22 74,21 9,-9 -123,-103 -202,-143 -220,-113 -424,-232 -528,-306 -141,-101 -360,-285 -514,-431 -98,-93 -155,-143 -315,-277 -4,-3 -16,-39 -27,-80 -11,-41 -54,-176 -96,-300 -42,-124 -98,-308 -126,-410 -27,-102 -72,-250 -99,-330 -26,-80 -47,-146 -45,-148 7,-7 189,90 259,137 39,27 90,58 113,69 46,24 217,73 423,122 159,37 243,71 337,133 156,104 228,190 369,442 43,77 126,220 186,317 59,97 133,228 164,290 51,102 289,613 317,681 6,15 14,27 17,27 4,0 51,-60 104,-133 l 98,-134 52,8 c 28,5 61,11 74,14 31,8 29,-4 -29,-178 -132,-390 -219,-605 -334,-818 -41,-75 -81,-159 -89,-185 -18,-59 -30,-181 -18,-188 4,-2 48,7 96,21 48,14 92,21 96,17 16,-17 60,-177 75,-267 19,-120 32,-291 41,-505 l 6,-174 45,44 c 109,107 265,329 373,533 155,290 253,447 395,630 65,83 104,120 213,195 74,51 73,39 6,197 -53,125 -85,184 -203,381 -132,220 -192,294 -358,439 -145,126 -146,127 -117,135 16,5 62,6 102,3 67,-6 79,-11 163,-66 188,-124 227,-176 422,-572 106,-216 155,-330 237,-552 56,-154 114,-296 128,-315 50,-67 419,-462 437,-468 6,-2 30,70 56,160 25,90 47,169 50,177 3,8 44,-38 101,-113 l 96,-126 123,148 c 68,81 218,242 335,357 117,116 220,226 229,245 34,66 125,355 149,470 29,135 44,271 48,427 2,62 6,112 9,110 7,-3 124,-129 272,-295 65,-73 121,-132 126,-132 4,0 0,39 -10,88 -29,138 -42,353 -36,576 7,232 12,262 68,400 76,185 90,229 155,480 92,353 157,561 211,679 43,91 48,111 51,187 3,47 -1,115 -8,152 l -12,68 -28,-15 c -35,-18 -99,-93 -180,-213 -45,-67 -87,-114 -147,-164 -46,-39 -86,-69 -88,-67 -2,3 9,25 24,49 15,25 67,115 115,200 118,207 196,325 339,504 197,247 395,429 662,608 83,56 154,104 159,109 13,11 -72,206 -107,245 -39,45 -135,108 -205,134 -31,12 -124,39 -207,61 -82,21 -190,50 -240,63 -49,13 -179,41 -288,61 -114,22 -192,42 -185,46 7,5 36,11 65,15 40,5 53,10 53,23 0,24 -75,314 -88,337 -22,42 -125,126 -188,155 -36,17 -87,50 -113,74 -25,23 -86,68 -136,98 -99,60 -128,93 -151,175 -9,29 -30,76 -47,104 -23,36 -31,62 -31,92 1,49 18,168 38,253 8,35 17,132 21,215 l 8,153 39,-140 c 33,-119 38,-149 33,-202 -4,-44 1,-92 16,-165 l 21,-103 82,-85 c 63,-67 93,-110 135,-191 30,-57 65,-119 78,-136 35,-48 98,-80 191,-97 82,-16 85,-17 161,-86 76,-68 78,-71 104,-157 33,-109 55,-145 109,-179 24,-15 61,-44 84,-64 68,-62 141,-75 413,-72 128,1 241,-3 262,-8 34,-9 40,-16 59,-66 11,-31 33,-75 49,-98 15,-22 56,-111 90,-196 35,-85 65,-157 67,-159 2,-2 43,10 91,28 229,81 431,115 693,114 200,0 251,-5 640,-72 108,-19 121,-19 215,-5 122,19 142,27 229,94 63,48 75,53 140,61 103,12 107,10 48,-16 -31,-14 -82,-52 -121,-90 -42,-40 -84,-70 -112,-80 -90,-33 -295,-85 -330,-85 -33,0 -37,2 -32,23 6,28 -74,-54 -123,-128 -41,-60 -45,-57 117,-75 144,-16 411,-8 529,15 98,19 125,16 292,-41 56,-19 107,-34 114,-34 31,0 205,195 189,212 -5,5 -34,182 -30,186 1,1 22,-23 46,-54 l 44,-57 v -121 c 0,-67 -3,-140 -8,-163 l -7,-43 h 47 c 60,0 74,10 199,135 86,87 111,106 194,146 52,26 115,62 140,81 73,55 74,54 34,-23 -38,-71 -40,-74 -94,-89 -90,-27 -116,-46 -193,-143 -40,-50 -143,-162 -228,-247 -85,-85 -165,-170 -178,-189 l -24,-33 42,7 c 27,4 41,3 41,-4 0,-27 -87,-94 -182,-142 -57,-28 -122,-65 -146,-82 -42,-31 -119,-133 -108,-144 8,-8 388,142 435,171 20,13 77,62 128,109 122,114 157,138 299,206 66,32 131,69 143,82 13,13 41,56 62,95 64,115 90,145 194,219 164,116 227,193 254,310 25,111 81,562 81,654 0,90 -3,90 -124,-25 -100,-95 -123,-112 -235,-167 -115,-57 -128,-62 -188,-61 -35,0 -68,5 -73,10 -4,5 -5,48 0,99 5,50 11,150 14,224 l 5,134 -100,-101 c -93,-94 -176,-151 -197,-138 -5,3 -12,24 -15,47 -6,47 -29,76 -74,95 -43,18 -41,19 -49,-23 -4,-21 -13,-51 -22,-68 -33,-66 -157,-235 -172,-235 -13,0 -61,160 -55,181 4,13 11,60 14,106 6,74 5,83 -11,83 -35,0 -75,-23 -125,-72 l -52,-51 -73,48 c -109,72 -286,207 -375,286 -87,78 -222,173 -298,212 -69,34 -159,50 -255,45 -44,-3 -80,-1 -80,3 0,19 89,117 171,186 295,251 449,346 644,400 84,23 120,27 232,27 72,1 134,-1 136,-4 3,-3 -3,-47 -15,-98 -19,-87 -19,-94 -3,-118 20,-31 93,-65 151,-72 33,-3 58,3 126,36 47,21 102,51 122,65 l 38,25 121,-58 c 67,-32 158,-73 202,-90 44,-17 86,-37 94,-43 11,-9 12,-41 8,-157 -3,-80 -10,-161 -16,-180 -6,-19 -22,-86 -36,-147 -14,-62 -28,-120 -31,-128 -9,-22 61,9 177,81 74,45 123,87 235,201 137,139 142,143 185,145 70,2 230,-2 272,-8 l 38,-6 -7,-46 c -4,-25 -26,-102 -49,-171 -54,-163 -59,-181 -43,-181 25,0 134,58 193,103 95,71 210,191 285,296 37,53 100,126 140,163 l 71,68 -6,57 c -14,125 -43,188 -124,278 -83,92 -87,99 -21,47 112,-91 134,-103 194,-109 69,-7 79,-22 99,-140 8,-44 18,-78 25,-78 21,0 200,164 263,242 134,167 250,364 298,508 71,213 80,404 25,511 -38,76 -128,151 -270,228 -60,33 -126,68 -147,80 l -38,20 -45,-24 c -25,-14 -93,-60 -151,-103 -58,-43 -107,-76 -109,-74 -3,2 38,62 91,132 72,96 92,131 83,138 -7,5 -78,40 -158,79 -80,39 -174,89 -209,111 -44,28 -68,37 -77,31 -31,-22 -201,-143 -254,-181 -44,-32 -59,-49 -64,-75 -11,-61 -54,-136 -113,-201 -32,-34 -73,-81 -91,-102 -18,-22 -30,-31 -26,-20 7,20 25,95 41,170 6,32 16,44 47,61 31,18 48,41 97,133 62,118 114,199 173,270 l 36,43 -69,48 c -39,27 -74,51 -79,54 -5,3 -34,-12 -63,-33 -107,-76 -108,-76 -271,-73 -128,2 -158,0 -220,-19 -97,-29 -131,-48 -203,-109 -33,-28 -69,-53 -80,-55 -58,-12 -203,-49 -222,-56 -31,-11 -81,-104 -89,-162 -5,-38 -13,-53 -38,-72 -18,-13 -55,-53 -83,-87 l -51,-63 -88,-12 c -54,-8 -106,-22 -135,-37 l -47,-24 -34,28 c -18,15 -31,30 -28,32 48,39 153,117 216,161 86,59 124,98 192,190 70,94 71,99 29,151 -46,55 -44,56 120,63 67,3 126,9 131,12 5,3 32,41 60,83 29,43 62,82 73,89 12,6 69,15 128,20 131,11 139,13 283,60 64,22 123,39 131,39 31,0 26,20 -27,122 -40,76 -63,139 -89,239 -44,166 -102,318 -161,421 -44,78 -185,263 -193,254 -2,-2 11,-91 31,-198 19,-106 38,-209 41,-228 3,-19 -14,19 -38,85 -90,249 -171,391 -309,543 -191,210 -248,278 -272,322 -17,31 -39,113 -66,245 -47,232 -90,418 -96,413 -10,-11 -85,-131 -119,-191 l -38,-69 -37,79 c -71,150 -183,319 -359,540 -91,114 -107,130 -113,113 -4,-12 -11,-147 -14,-300 -4,-154 -11,-280 -15,-280 -5,0 -39,19 -76,43 -392,250 -890,477 -1553,707 -146,51 -308,110 -360,132 -117,50 -540,251 -597,285 l -41,24 z m -862,-2277 c 141,-43 278,-103 413,-184 69,-40 123,-75 121,-78 -2,-2 -58,1 -124,7 -148,14 -355,7 -454,-16 l -74,-18 59,-54 60,-54 -59,26 c -113,48 -171,59 -326,59 -191,1 -232,-14 -341,-123 -127,-127 -198,-301 -220,-536 -11,-115 -6,-478 7,-535 10,-44 -54,70 -87,155 -34,87 -81,283 -100,413 -15,107 -7,313 16,412 23,100 56,164 130,257 70,87 164,167 240,206 129,65 308,97 510,93 117,-3 154,-7 229,-30 z m 2812,-767 c 157,-18 238,-48 402,-146 114,-67 230,-115 337,-139 l 80,-17 -36,-12 c -58,-20 -102,-45 -134,-76 -37,-35 -206,-114 -288,-135 -42,-11 -90,-15 -153,-12 -84,3 -100,8 -177,46 -149,73 -268,226 -312,397 -8,32 -15,72 -15,87 v 29 l 108,-6 c 59,-3 144,-10 188,-16 z m 1086,-930 c 19,-10 9,-16 -85,-49 -59,-21 -114,-44 -123,-50 -8,-7 -17,-11 -20,-8 -9,10 60,61 121,90 67,31 77,33 107,17 z m -536,-144 c -137,-72 -179,-84 -98,-29 69,46 171,94 200,94 13,0 -29,-27 -102,-65 z m 2908,-70 c 10,-8 55,-26 100,-41 65,-21 89,-35 121,-69 22,-24 62,-52 90,-64 27,-12 53,-27 57,-34 12,-19 9,-213 -4,-244 -11,-28 -12,-28 -18,18 -8,61 -20,75 -83,89 -81,19 -94,31 -101,94 -8,61 -29,94 -81,126 -20,12 -54,49 -76,81 -40,59 -41,71 -5,44 z m -3613,-222 c -24,-48 -45,-67 -103,-93 -75,-33 -126,-36 -185,-10 -29,12 -59,30 -68,40 -19,21 -31,16 125,55 74,19 194,42 228,44 l 22,1 z m -3993,-2605 c -47,-60 -194,-204 -323,-318 -154,-135 -232,-217 -266,-275 -16,-27 -29,-53 -29,-57 0,-10 97,-38 132,-38 15,0 28,-3 28,-7 -1,-5 -36,-32 -79,-60 -169,-114 -378,-323 -367,-368 3,-12 -3,-48 -14,-80 -32,-93 -35,-143 -11,-199 23,-53 81,-284 81,-323 0,-17 -22,-45 -74,-96 -77,-75 -320,-350 -418,-474 -93,-116 -141,-189 -229,-348 -164,-297 -185,-342 -234,-483 -4,-10 -21,0 -57,30 -74,62 -362,328 -366,338 -2,5 30,18 70,30 294,86 345,103 360,118 23,24 228,335 224,340 -3,2 -53,8 -113,13 -122,10 -667,94 -686,106 -9,5 154,113 283,187 47,27 165,102 263,166 97,65 177,115 177,113 0,-3 -22,-42 -50,-88 -56,-93 -89,-162 -90,-187 0,-38 204,-275 224,-259 6,4 28,14 48,20 44,14 80,52 214,216 102,127 194,257 194,275 0,6 -7,24 -15,40 -34,66 -44,133 -30,200 9,44 10,81 4,124 -5,33 -9,100 -9,147 0,95 -21,179 -71,285 -16,33 -29,64 -29,67 0,4 13,7 28,7 83,0 300,84 390,150 17,12 61,61 99,108 141,175 360,363 578,494 61,37 128,80 150,97 22,16 42,30 43,30 2,1 -11,-18 -30,-41 z m 1182,-1248 c 5,-63 13,-135 16,-160 l 6,-44 27,33 27,33 -3,-69 c -2,-37 -6,-82 -9,-99 -12,-81 -283,-433 -396,-515 -25,-18 -25,-16 14,58 36,71 40,83 35,132 -3,29 -8,55 -10,58 -3,2 -36,-18 -73,-45 -53,-38 -81,-51 -119,-56 -27,-4 -80,-16 -117,-27 l -66,-21 -58,21 c -51,19 -63,21 -113,10 -117,-24 -245,-82 -620,-283 -68,-36 -126,-66 -128,-66 -3,0 36,43 86,96 50,53 112,124 137,157 39,52 45,67 41,94 l -6,33 h 92 c 73,0 121,7 230,35 179,46 182,48 247,108 79,73 188,167 193,167 3,0 7,-9 10,-19 7,-27 65,-61 103,-61 38,0 75,25 216,142 95,79 109,96 128,144 11,30 20,58 20,61 0,11 73,203 76,200 2,-1 8,-54 14,-117 z m -1998,-1087 c 17,-20 88,-157 88,-171 0,-5 -35,-24 -77,-42 -43,-17 -145,-61 -226,-97 -82,-35 -151,-63 -153,-60 -8,7 118,183 169,236 59,61 164,151 176,151 4,0 15,-8 23,-17 z m 1320,-518 c 54,-33 97,-63 98,-67 0,-3 -55,-41 -122,-85 -68,-43 -163,-107 -211,-141 -49,-35 -90,-62 -92,-60 -3,4 119,296 160,381 26,54 29,57 49,44 11,-7 65,-40 118,-72 z m -553,-279 c 12,-44 46,-185 76,-315 30,-130 74,-289 96,-354 23,-65 39,-120 36,-123 -3,-3 -22,3 -44,14 -21,11 -84,39 -140,62 l -103,42 v 57 c 1,139 45,710 55,699 1,-1 12,-39 24,-82 z"
       id="path1" />
    <path
       d="m 7713,15455 c -117,-37 -225,-119 -598,-455 -226,-204 -754,-720 -736,-720 5,0 22,5 38,11 36,13 240,69 254,69 6,0 -48,-62 -119,-137 -213,-226 -382,-421 -654,-754 -141,-173 -282,-347 -314,-387 l -57,-74 204,8 c 199,7 204,6 189,-12 -31,-39 -363,-423 -445,-514 l -86,-95 63,-3 c 83,-4 158,10 342,62 304,88 632,247 846,411 65,50 292,186 299,180 2,-3 -14,-42 -37,-87 -30,-61 -73,-120 -160,-220 -99,-113 -160,-188 -275,-336 -6,-8 11,-5 44,9 30,12 79,30 109,40 79,28 431,115 523,129 55,9 81,18 87,30 5,10 54,41 107,70 188,100 331,224 392,340 44,82 182,288 268,398 95,121 224,254 402,410 242,214 229,199 141,156 -114,-56 -452,-240 -549,-298 -47,-29 -147,-93 -221,-142 -74,-49 -155,-98 -180,-108 -121,-51 -178,-80 -235,-121 l -62,-44 -84,16 c -46,9 -85,17 -87,19 -4,2 22,99 33,128 8,17 4,18 -41,14 -50,-5 -248,-77 -340,-125 l -52,-26 -112,31 c -62,18 -115,34 -118,36 -6,7 259,308 598,681 80,88 176,195 214,237 75,85 124,114 286,169 115,38 223,39 404,4 71,-14 138,-23 150,-19 11,4 72,39 136,79 273,170 723,430 1038,599 89,49 162,89 162,91 0,10 -676,-149 -805,-189 -46,-15 -63,-14 -230,5 l -180,22 -92,-47 c -85,-42 -239,-94 -249,-83 -3,2 10,15 28,29 18,14 98,85 178,158 80,73 173,155 207,183 l 62,50 -267,68 c -280,72 -338,79 -419,54 z"
       id="path2" />
    <path
       d="m 9842,13801 c -113,-150 -211,-314 -312,-523 -99,-206 -167,-377 -187,-470 -21,-99 -20,-378 2,-628 22,-245 16,-288 -61,-440 -64,-124 -110,-191 -350,-507 -99,-131 -207,-278 -241,-328 -67,-101 -398,-648 -462,-767 -41,-75 -43,-88 -25,-146 3,-12 127,102 337,310 37,37 67,66 67,65 0,-1 -5,-18 -10,-37 -30,-100 -86,-390 -75,-390 13,0 316,208 492,339 127,93 272,240 380,384 l 73,98 v 92 c 0,110 35,564 46,592 4,11 33,77 66,148 81,175 100,252 101,402 0,102 -5,141 -33,260 -47,200 -42,342 31,774 43,257 153,649 230,820 16,35 27,66 25,68 -2,2 -45,-50 -94,-116 z"
       id="path3" />
    <path
       d="m 8782,13133 c -28,-48 -67,-135 -87,-193 -55,-161 -107,-262 -159,-306 -54,-48 -184,-126 -254,-154 l -53,-20 3,207 c 2,115 7,217 11,228 11,25 -200,-191 -345,-355 -61,-69 -145,-177 -186,-240 -94,-143 -373,-630 -419,-729 l -34,-73 38,22 c 72,42 254,173 328,237 77,65 142,113 155,113 4,0 10,-59 13,-132 l 7,-132 -47,-116 c -42,-107 -119,-264 -262,-537 -45,-85 -65,-138 -85,-222 -14,-61 -26,-114 -26,-118 0,-3 53,46 119,109 105,103 295,247 307,235 5,-5 -15,-112 -96,-507 -46,-223 -61,-340 -43,-340 3,0 57,52 118,115 109,111 115,116 246,180 73,36 187,83 253,103 139,43 102,-1 297,357 163,300 259,490 316,625 l 44,105 -78,-85 c -43,-47 -119,-129 -170,-182 -51,-53 -106,-122 -123,-152 -25,-44 -40,-59 -85,-80 -48,-23 -215,-76 -238,-76 -6,0 -7,25 -3,59 9,76 36,389 36,417 0,23 11,41 200,339 73,116 155,245 182,288 66,105 75,153 87,462 10,243 13,272 50,445 21,102 37,186 36,188 -2,2 -25,-36 -53,-85 z"
       id="path4" />
    <path
       d="m 7008,11846 c -42,-56 -144,-206 -226,-332 -82,-126 -178,-274 -214,-329 -36,-55 -108,-190 -161,-300 -100,-208 -186,-455 -277,-795 -40,-151 -173,-588 -190,-627 -5,-13 -6,-23 -2,-23 9,0 127,129 230,252 44,51 188,200 321,329 209,203 244,241 251,275 5,21 27,145 49,274 70,402 81,460 122,645 65,295 98,432 140,584 22,79 38,145 36,147 -1,1 -37,-43 -79,-100 z"
       id="path5" />
    <path
       d="m 15197,8974 c -3,-10 -11,-62 -17,-114 -31,-260 -62,-380 -112,-426 -18,-17 -71,-53 -118,-80 -46,-27 -110,-74 -141,-104 l -57,-55 -45,-240 c -25,-132 -49,-262 -52,-290 -4,-27 -8,-62 -11,-76 -4,-23 5,-31 114,-96 66,-40 209,-135 318,-212 108,-78 199,-139 201,-137 2,1 -4,36 -12,77 -29,139 -47,274 -48,369 -1,93 1,100 70,305 40,116 92,256 117,313 l 45,102 -74,218 c -87,259 -138,401 -158,438 -13,25 -15,26 -20,8 z"
       id="path6" />
    <path
       d="m 13386,8300 c -3,-8 -33,-95 -66,-192 -106,-311 -185,-475 -386,-798 l -77,-124 -28,-170 c -15,-94 -31,-182 -34,-195 -8,-32 -1,-29 163,76 258,164 360,241 403,304 21,32 63,86 92,120 28,34 61,73 73,87 l 20,24 109,-130 c 60,-72 113,-128 117,-126 20,13 128,308 128,350 0,64 -327,579 -478,754 -23,27 -32,31 -36,20 z"
       id="path7" />
  </g>
</svg>
