<?xml version="1.0" encoding="UTF-8" standalone="no"?>
<svg
   version="1.0"
   width="4893.000000pt"
   height="2752.000000pt"
   viewBox="0 0 4893.000000 2752.000000"
   preserveAspectRatio="xMidYMid meet"
   id="svg14"
   sodipodi:docname="nazwa.svg"
   inkscape:version="1.4.3 (0d15f75, 2025-12-25)"
   inkscape:export-filename="nazwa.png"
   inkscape:export-xdpi="96"
   inkscape:export-ydpi="96"
   xmlns:inkscape="http://www.inkscape.org/namespaces/inkscape"
   xmlns:sodipodi="http://sodipodi.sourceforge.net/DTD/sodipodi-0.dtd"
   xmlns="http://www.w3.org/2000/svg"
   xmlns:svg="http://www.w3.org/2000/svg">
  <defs
     id="defs14">
    <inkscape:path-effect
       effect="spiro"
       id="path-effect25"
       is_visible="true"
       lpeversion="1" />
    <inkscape:path-effect
       effect="spiro"
       id="path-effect24"
       is_visible="true"
       lpeversion="1" />
    <inkscape:path-effect
       effect="spiro"
       id="path-effect23"
       is_visible="true"
       lpeversion="1" />
    <inkscape:path-effect
       effect="spiro"
       id="path-effect22"
       is_visible="true"
       lpeversion="1" />
    <inkscape:path-effect
       effect="spiro"
       id="path-effect21"
       is_visible="true"
       lpeversion="1" />
    <inkscape:path-effect
       effect="spiro"
       id="path-effect20"
       is_visible="true"
       lpeversion="1" />
    <inkscape:path-effect
       effect="spiro"
       id="path-effect19"
       is_visible="true"
       lpeversion="1" />
    <inkscape:path-effect
       effect="spiro"
       id="path-effect18"
       is_visible="true"
       lpeversion="1" />
    <inkscape:path-effect
       effect="spiro"
       id="path-effect17"
       is_visible="true"
       lpeversion="1" />
    <inkscape:path-effect
       effect="spiro"
       id="path-effect16"
       is_visible="true"
       lpeversion="1" />
  </defs>
  <sodipodi:namedview
     id="namedview14"
     pagecolor="#ffffff"
     bordercolor="#000000"
     borderopacity="0.25"
     inkscape:showpageshadow="2"
     inkscape:pageopacity="0.0"
     inkscape:pagecheckerboard="0"
     inkscape:deskcolor="#d1d1d1"
     inkscape:document-units="pt"
     inkscape:zoom="0.15551467"
     inkscape:cx="2527.0928"
     inkscape:cy="1591.4897"
     inkscape:window-width="1920"
     inkscape:window-height="1009"
     inkscape:window-x="-8"
     inkscape:window-y="-8"
     inkscape:window-maximized="1"
     inkscape:current-layer="svg14" />
  <rect
     style="fill:#cccccc;fill-opacity:1;stroke-width:0.243896"
     id="rect25"
     width="2155.7454"
     height="665.53204"
     x="1278.0145"
     y="1634.8939" />
  <g
     transform="matrix(0.1,0,0,-0.1,-17.612793,2810.1599)"
     fill="#000000"
     stroke="none"
     id="g14"
     style="display:inline">
    <path
       d="m 15420,8425 c 0,-1180 3,-2145 6,-2145 3,0 65,53 138,117 72,65 216,194 321,288 104,93 241,216 303,273 l 112,104 v 559 559 l 38,24 c 51,32 143,78 148,74 6,-6 90,-191 166,-363 105,-238 260,-578 343,-751 l 73,-152 123,-72 c 68,-40 246,-145 394,-234 314,-187 729,-426 733,-421 1,1 -67,143 -153,314 -85,171 -155,314 -155,317 0,5 -84,180 -440,914 -92,190 -216,446 -276,569 -59,124 -104,226 -99,228 6,2 123,61 260,132 l 250,129 v 593 594 l -230,183 c -126,101 -265,212 -308,248 l -77,64 h -835 -835 z m 1474,1384 73,-61 -4,-236 c -2,-131 -6,-243 -8,-249 -4,-11 -585,-302 -636,-318 -19,-6 -19,3 -19,459 v 466 h 261 261 z"
       id="path8" />
    <path
       d="m 18550,10554 c -8,-8 -136,-121 -286,-249 -149,-129 -274,-242 -278,-251 -3,-8 -6,-591 -6,-1295 V 7480 l 38,-24 c 46,-29 692,-396 698,-396 2,0 4,228 4,508 v 507 l 263,107 262,107 3,-615 2,-614 h 370 370 v 1755 1755 h -714 c -633,0 -715,-2 -726,-16 z m 698,-1100 -3,-416 -250,-109 c -137,-60 -256,-109 -262,-109 -10,0 -13,102 -13,482 v 482 l 48,43 47,42 218,1 h 217 z"
       id="path9" />
    <path
       d="M 20260,9017 V 7463 l 188,-103 c 476,-265 546,-300 554,-288 4,7 8,418 8,913 l 1,900 21,-55 c 46,-125 245,-625 303,-765 l 63,-150 h 237 237 l 40,100 c 21,55 86,213 143,350 57,138 128,313 157,390 l 53,140 3,-918 2,-917 61,30 c 33,17 135,73 227,124 92,51 231,127 310,170 l 142,78 v 1554 1554 h -389 -389 l -11,-27 c -6,-16 -65,-172 -131,-348 -67,-176 -145,-383 -175,-460 -88,-227 -265,-715 -265,-730 0,-38 -19,-16 -42,48 -34,93 -123,334 -292,787 -75,201 -160,428 -188,505 -28,77 -60,159 -69,183 l -18,42 h -391 -390 z"
       id="path10" />
    <path
       d="M 23250,8810 V 7050 l 378,2 377,3 3,546 2,545 48,23 c 26,13 198,90 382,171 285,126 616,275 778,350 l 42,20 v 690 c 0,389 -4,689 -9,688 -9,-3 -498,401 -545,451 l -30,31 h -713 -713 z m 1211,1009 59,-51 -1,-246 c -1,-136 -4,-280 -8,-321 l -6,-73 -200,-90 c -110,-49 -221,-98 -247,-109 l -48,-19 v 480 480 h 196 196 z"
       id="path11" />
    <path
       d="m 25755,10324 c -154,-135 -288,-250 -297,-255 -17,-9 -18,-82 -18,-1307 l 1,-1297 128,-72 c 278,-157 601,-333 611,-333 6,0 11,176 12,506 l 3,506 245,104 c 135,57 246,104 247,104 2,0 4,-275 5,-612 l 3,-612 368,-1 h 367 v 1758 1757 h -697 l -698,-1 z m 935,-868 v -414 l -47,-20 c -347,-152 -440,-192 -450,-192 -10,0 -13,100 -13,467 v 467 l 52,53 52,53 h 203 203 z"
       id="path12" />
    <path
       d="m 28120,10498 c -163,-136 -425,-361 -467,-402 l -43,-40 V 8799 7542 l 217,-183 c 119,-101 251,-213 292,-248 l 76,-63 320,6 c 176,4 335,4 353,0 l 32,-6 v -205 -204 l 363,243 362,244 3,860 2,860 -515,3 c -283,1 -515,-1 -515,-6 0,-5 65,-140 145,-302 l 145,-293 v -239 -239 h -218 -218 l -52,48 -52,48 v 956 956 l 54,46 53,46 h 222 221 v -306 c 0,-255 2,-305 14,-301 7,3 152,92 322,197 170,106 328,204 350,218 l 42,26 7,190 c 3,105 5,299 3,431 l -3,240 -715,2 -715,2 z"
       id="path13" />
    <path
       d="M 29900,8817 V 7063 l 233,-5 c 284,-7 1896,-2 1904,6 3,3 -55,90 -129,193 -74,103 -185,261 -248,351 l -113,162 h -453 -454 v 350 350 l 267,2 267,3 54,100 c 49,90 302,578 310,597 2,4 -199,8 -447,8 h -451 v 345 345 h 454 453 l 179,245 c 99,134 212,288 251,342 40,54 73,101 73,106 0,4 -484,7 -1075,7 h -1075 z"
       id="path14" />
  </g>
</svg>
